<svg version="1.1" viewBox="0.0 0.0 960.0 540.0" fill="none" stroke="none" stroke-linecap="square" stroke-miterlimit="10" xmlns:xlink="http://www.w3.org/1999/xlink" xmlns="http://www.w3.org/2000/svg"><clipPath id="g2fc7d4e7d1d_1_0.0"><path d="m0 0l960.0 0l0 540.0l-960.0 0l0 -540.0z" clip-rule="nonzero"/></clipPath><g clip-path="url(#g2fc7d4e7d1d_1_0.0)"><path fill="#fcfcfc" d="m0 0l960.0 0l0 540.0l-960.0 0z" fill-rule="evenodd"/><defs><linearGradient id="g2fc7d4e7d1d_1_0.1" gradientUnits="userSpaceOnUse" gradientTransform="matrix(27.08589302643232 -13.211454720874809 13.211454720874809 27.08589302643232 0.0 0.0)" spreadMethod="pad" x1="-3.1251709370031815" y1="23.34599245637844" x2="23.960722089429144" y2="23.34599245637844"><stop offset="0.0" stop-color="#4454d0" stop-opacity="0.28235295"/><stop offset="0.99999994" stop-color="#4454d0" stop-opacity="0.0"/><stop offset="1.0" stop-color="#ffffff" stop-opacity="0.0"/></linearGradient></defs><path fill="url(#g2fc7d4e7d1d_1_0.1)" d="m163.85245 437.75995c17.86258 10.659912 32.694153 19.738495 56.817947 21.906311c24.12378 2.1678162 61.619644 -2.8659058 87.92476 -8.899353c26.305115 -6.0334473 50.663086 -17.915436 69.905914 -27.30133c19.242798 -9.385895 28.763947 -17.993774 45.550964 -29.014069c16.786987 -11.020325 32.74182 -25.601105 55.17105 -37.107727c22.42923 -11.506653 54.126648 -27.193054 79.40436 -31.932098c25.27771 -4.739044 51.703613 0.9126587 72.2619 3.4978333c20.558289 2.5851746 32.75348 11.515289 51.087708 12.013245c18.334229 0.49795532 34.78003 -1.3303223 58.917786 -9.025482c24.137756 -7.69516 64.36395 -26.297028 85.90863 -37.145447c21.544678 -10.84845 29.973145 -19.22583 43.359436 -27.94513c13.38623 -8.719299 24.338013 -29.845901 36.95807 -24.370758c12.620056 5.4751434 40.28711 41.1839 38.762146 57.22165c-1.5249023 16.03772 -31.68103 27.462738 -47.911865 39.0047c-16.230835 11.541931 -27.518555 19.31189 -49.473145 30.246887c-21.95459 10.934998 -59.87036 27.16388 -82.254456 35.3631c-22.384094 8.199219 -35.84485 11.818878 -52.05005 13.832245c-16.20514 2.0133667 -31.493042 -0.2718506 -45.180847 -1.7520752c-13.687805 -1.4802246 -23.867432 -5.3515015 -36.945923 -7.1292725c-13.078552 -1.777771 -28.231201 -3.7906494 -41.525208 -3.5373535c-13.294006 0.2532959 -24.635742 0.80111694 -38.23883 5.0570984c-13.603149 4.255951 -30.640564 12.905579 -43.37976 20.478699c-12.739197 7.57312 -20.44168 16.20166 -33.05545 24.960052c-12.61377 8.758362 -23.607605 17.746613 -42.627228 27.59018c-19.019592 9.843567 -50.56778 23.984741 -71.49042 31.47113c-20.922668 7.486389 -34.182983 10.896362 -54.04547 13.447205c-19.862457 2.5508423 -43.9769 4.1155396 -65.12935 1.8578491c-21.15245 -2.2576904 -43.58844 -6.531372 -61.7854 -15.403992c-18.196945 -8.872559 -35.067047 -23.679749 -47.3963 -37.831512c-12.329239 -14.151764 -23.262718 -33.47809 -26.579147 -47.07904c-3.3164215 -13.600952 -2.8257446 -35.781036 6.6806183 -34.52664c9.506363 1.254425 32.49498 31.393219 50.35756 42.0531z" fill-rule="evenodd"/><defs><linearGradient id="g2fc7d4e7d1d_1_0.2" gradientUnits="userSpaceOnUse" gradientTransform="matrix(18.605945969347037 0.0 0.0 18.605945969347037 0.0 0.0)" spreadMethod="pad" x1="54.50658919541611" y1="25.07845123788723" x2="54.506791978219276" y2="6.472505269645241"><stop offset="0.0" stop-color="#9344d0" stop-opacity="0.15686275"/><stop offset="0.99999994" stop-color="#9344d0" stop-opacity="0.0"/><stop offset="1.0" stop-color="#ffffff" stop-opacity="0.0"/></linearGradient></defs><path fill="url(#g2fc7d4e7d1d_1_0.2)" d="m255.43263 183.9852c10.139542 18.163162 24.908585 32.74672 46.00786 46.548553c21.099304 13.801834 54.792236 28.333344 80.58795 36.26245c25.795715 7.929138 52.83026 9.818024 74.18634 11.312347c21.35608 1.4943237 33.903748 -1.1977234 53.950134 -2.346466c20.046387 -1.1487122 41.15265 -5.7970276 66.328064 -4.545929c25.175415 1.2510986 60.465454 3.516632 84.72443 12.05249c24.258972 8.535889 44.31891 26.64392 60.829407 39.16275c16.510498 12.518799 22.605835 26.35083 38.23358 35.950134c15.627747 9.599274 30.783447 16.239258 55.532837 21.64566c24.749329 5.406372 68.88275 9.413391 92.96326 10.792664c24.080444 1.379242 35.568665 -1.6601257 51.519653 -2.5170898c15.950989 -0.8569336 35.99518 -13.676727 44.18634 -2.6246643c8.191162 11.052063 14.298767 55.811035 4.9606323 68.93701c-9.338135 13.125977 -41.164 7.9400635 -60.989502 9.818909c-19.82544 1.8788147 -33.48468 2.9632568 -57.963257 1.454071c-24.478577 -1.5091858 -65.42517 -6.4160156 -88.90814 -10.509186c-23.48291 -4.0932007 -36.949646 -7.68985 -51.989502 -14.049866c-15.039795 -6.3600464 -27.136475 -15.983826 -38.24933 -24.11026c-11.112854 -8.126404 -17.991272 -16.569122 -28.427795 -24.648285c-10.436584 -8.079163 -22.55249 -17.398499 -34.19159 -23.826782c-11.63916 -6.428253 -21.735352 -11.625977 -35.643066 -14.742767c-13.907715 -3.1167908 -32.985596 -4.146118 -47.80316 -3.9580078c-14.817566 0.18811035 -25.800537 3.8092651 -41.102356 5.086609c-15.301849 1.2773438 -29.317139 3.5638733 -50.70865 2.577423c-21.39154 -0.9864197 -55.77954 -4.5166016 -77.64044 -8.496063c-21.86087 -3.9794312 -35.04944 -7.6570435 -53.524933 -15.380554c-18.475494 -7.7235413 -40.139526 -18.428284 -57.328064 -30.960632c-17.188568 -12.532379 -34.480774 -27.45102 -45.80316 -44.233612c-11.322403 -16.782593 -18.529312 -38.04155 -22.13124 -56.461945c-3.6019135 -18.42038 -3.4076996 -40.623795 0.51968384 -54.060364c3.9273834 -13.436569 16.732285 -32.53762 23.044632 -26.559052c6.312332 5.9785614 4.68985 44.267273 14.8293915 62.43045z" fill-rule="evenodd"/><defs><linearGradient id="g2fc7d4e7d1d_1_0.3" gradientUnits="userSpaceOnUse" gradientTransform="matrix(27.085928748884424 -13.211472144578615 13.211472144578615 27.085928748884424 0.0 0.0)" spreadMethod="pad" x1="29.423740984285025" y1="8.516639250698683" x2="2.3378122361094618" y2="8.51644328996476"><stop offset="0.0" stop-color="#9344d0" stop-opacity="0.28235295"/><stop offset="0.99999994" stop-color="#9344d0" stop-opacity="0.0"/><stop offset="1.0" stop-color="#ffffff" stop-opacity="0.0"/></linearGradient></defs><path fill="url(#g2fc7d4e7d1d_1_0.3)" d="m246.99751 232.6833c17.862595 10.659897 32.694168 19.73848 56.817947 21.906311c24.12378 2.1678314 61.61963 -2.8659058 87.92474 -8.899353c26.305115 -6.0334473 50.663116 -17.915436 69.905914 -27.301346c19.242828 -9.385895 28.763977 -17.993774 45.550964 -29.014069c16.786987 -11.020294 32.74182 -25.601074 55.17108 -37.10771c22.4292 -11.506638 54.126587 -27.19307 79.4043 -31.932114c25.27771 -4.739044 51.703674 0.9126663 72.26196 3.4978485c20.558228 2.5851822 32.753418 11.515274 51.087708 12.013229c18.334229 0.49797058 34.78003 -1.3303223 58.917786 -9.025475c24.137756 -7.69516 64.36395 -26.297028 85.90863 -37.145454c21.544678 -10.848427 29.973145 -19.225807 43.359375 -27.945118c13.3862915 -8.719315 24.338074 -29.845907 36.95813 -24.370762c12.620056 5.4751472 40.28705 41.183914 38.762146 57.22164c-1.5249023 16.03772 -31.68103 27.46276 -47.911865 39.0047c-16.230835 11.541931 -27.518555 19.311905 -49.473145 30.246902c-21.95459 10.934998 -59.87036 27.163864 -82.254456 35.363083c-22.384094 8.199234 -35.84491 11.818893 -52.05005 13.83226c-16.20514 2.0133667 -31.493042 -0.27183533 -45.180847 -1.7520599c-13.687805 -1.4802246 -23.867432 -5.3515167 -36.945923 -7.1292877c-13.078552 -1.777771 -28.231201 -3.7906494 -41.525208 -3.5373535c-13.294006 0.25328064 -24.635742 0.8011322 -38.23889 5.0570984c-13.603088 4.255966 -30.640503 12.905579 -43.3797 20.478699c-12.739197 7.57312 -20.441711 16.20166 -33.05548 24.960037c-12.61377 8.758362 -23.607605 17.746643 -42.627197 27.59018c-19.019623 9.843567 -50.56781 23.984772 -71.49045 31.47116c-20.922638 7.486389 -34.182983 10.896362 -54.04544 13.447205c-19.862457 2.5508423 -43.9769 4.115509 -65.129364 1.8578491c-21.152466 -2.2576904 -43.58844 -6.5314026 -61.7854 -15.403992c-18.196945 -8.872589 -35.067047 -23.679749 -47.3963 -37.831512c-12.329239 -14.151764 -23.262726 -33.47812 -26.579147 -47.079056c-3.3164215 -13.600952 -2.8257446 -35.78105 6.6806183 -34.52664c9.506363 1.2544098 32.49498 31.393204 50.35756 42.0531z" fill-rule="evenodd"/></g></svg>